<?xml version="1.0" standalone="no"?>
<!DOCTYPE svg PUBLIC "-//W3C//DTD SVG 20010904//EN"
 "http://www.w3.org/TR/2001/REC-SVG-20010904/DTD/svg10.dtd">
<svg version="1.0" xmlns="http://www.w3.org/2000/svg"
 width="512.000000pt" height="512.000000pt" viewBox="0 0 512.000000 512.000000"
 preserveAspectRatio="xMidYMid meet">

<g transform="translate(0.000000,512.000000) scale(0.100000,-0.100000)"
fill="#fff" stroke="none">
<path d="M2321 5110 c-497 -48 -990 -251 -1376 -565 -114 -92 -294 -274 -384
-387 -229 -287 -417 -675 -495 -1023 -49 -218 -60 -325 -60 -575 0 -250 11
-357 60 -575 79 -355 272 -749 509 -1040 92 -114 274 -294 387 -384 287 -229
675 -417 1023 -495 218 -49 325 -60 575 -60 250 0 357 11 575 60 261 58 603
204 828 353 389 259 688 599 893 1016 125 255 196 484 241 775 24 161 24 539
0 700 -45 291 -116 520 -241 775 -134 272 -283 480 -498 692 -211 209 -404
346 -673 478 -252 124 -486 197 -765 240 -126 19 -468 27 -599 15z m559 -246
c508 -74 967 -303 1324 -660 359 -358 581 -804 662 -1329 12 -77 17 -172 17
-315 0 -378 -75 -698 -240 -1032 -343 -693 -980 -1152 -1768 -1274 -151 -23
-479 -23 -630 0 -525 81 -971 303 -1329 662 -359 358 -581 804 -662 1329 -23
151 -23 479 0 630 42 267 111 492 223 717 337 680 970 1144 1733 1268 193 32
468 33 670 4z"/>
<path d="M3060 3483 c-97 -11 -199 -62 -276 -140 -93 -93 -138 -211 -132 -345
l3 -80 -74 6 c-292 27 -584 164 -809 381 -53 52 -99 92 -103 89 -16 -10 -50
-121 -56 -180 -12 -132 35 -261 132 -361 l61 -63 -31 0 c-16 0 -60 11 -97 24
l-68 23 0 -36 c0 -95 56 -217 137 -299 52 -52 176 -122 218 -122 16 0 17 -2 5
-10 -8 -5 -55 -10 -103 -10 -87 0 -88 0 -81 -22 22 -74 95 -163 174 -216 64
-43 169 -82 224 -82 l31 -1 -30 -24 c-43 -36 -189 -109 -265 -133 -106 -34
-178 -45 -293 -44 l-109 0 31 -19 c131 -79 334 -150 501 -175 138 -20 353 -15
475 11 509 108 889 459 1030 950 29 101 42 182 51 315 l7 105 76 71 c87 82
157 171 125 161 -59 -19 -201 -57 -215 -57 -10 0 11 28 55 73 58 58 116 144
116 171 0 3 -33 -11 -73 -29 -40 -19 -106 -43 -146 -54 l-73 -20 -51 38 c-117
87 -229 119 -367 104z"/>
</g>
</svg>
